<svg width="8" height="14" viewBox="0 0 8 14" fill="none" xmlns="http://www.w3.org/2000/svg">
<path fill-rule="evenodd" clip-rule="evenodd" d="M7.64387 6.36349C7.83134 6.55102 7.93665 6.80533 7.93665 7.07049C7.93665 7.33566 7.83134 7.58996 7.64387 7.77749L1.98687 13.4345C1.89462 13.53 1.78428 13.6062 1.66227 13.6586C1.54027 13.711 1.40905 13.7386 1.27627 13.7397C1.14349 13.7409 1.01181 13.7156 0.888913 13.6653C0.766016 13.615 0.654364 13.5408 0.560471 13.4469C0.466578 13.353 0.392325 13.2413 0.342044 13.1184C0.291764 12.9956 0.266462 12.8639 0.267616 12.7311C0.26877 12.5983 0.296356 12.4671 0.348765 12.3451C0.401174 12.2231 0.477356 12.1127 0.572866 12.0205L5.52287 7.07049L0.572866 2.12049C0.390708 1.93189 0.289914 1.67929 0.292192 1.41709C0.29447 1.15489 0.399639 0.904082 0.585047 0.718674C0.770455 0.533266 1.02127 0.428097 1.28347 0.425819C1.54566 0.423541 1.79826 0.524335 1.98687 0.706493L7.64387 6.36349Z" fill="#0E6131"/>
</svg>
